<svg width="83" height="88" viewBox="0 0 83 88" fill="none" xmlns="http://www.w3.org/2000/svg">
<path d="M35.5205 53.9786L15.5783 68.6028C13.1859 70.198 11.324 71.2617 8.9316 71.2617C4.14496 71.2617 0.15625 67.0074 0.15625 62.2208C0.15625 58.2323 3.34771 55.3073 6.27245 53.9786L29.671 43.874L6.27245 33.5043C3.08189 32.1748 0.15625 29.2498 0.15625 25.2613C0.15625 20.4754 4.41056 16.4869 9.19719 16.4869C11.5905 16.4869 13.1859 17.2848 15.5783 19.146L35.5205 33.7699L32.8616 10.1058C32.0641 4.52188 35.7872 0.000839988 41.1044 0.000839988C46.4227 0.000839988 50.1451 4.25515 49.3472 9.83926L46.6883 33.7699L66.6305 19.146C69.0238 17.2848 70.8848 16.4869 73.2783 16.4869C78.0641 16.4869 82.0525 20.4754 82.0525 25.2613C82.0525 29.5156 79.128 32.1748 75.9375 33.5043L52.5378 43.874L75.9375 53.9786C79.128 55.3073 82.0525 58.2323 82.0525 62.4875C82.0525 67.2732 77.7985 71.2617 73.0123 71.2617C70.8848 71.2617 69.0238 70.198 66.6305 68.6028L46.6883 53.9786L49.3472 77.6428C50.1451 83.2267 46.4227 87.7471 41.1044 87.7471C35.7872 87.7471 32.0641 83.4925 32.8616 77.9087L35.5205 53.9786Z" fill="#313C49"/>
</svg>
