<svg width="89" height="89" viewBox="0 0 89 89" fill="none" xmlns="http://www.w3.org/2000/svg">
<path d="M24.085 34.8602C23.3177 34.2867 22.5485 34 21.7813 34H18.3326V54.6583H21.7832C22.5505 54.6583 23.3197 54.3716 24.087 53.7981C24.8542 53.2246 25.2378 52.3645 25.2378 51.2156V37.4427C25.2358 36.2958 24.8503 35.4337 24.085 34.8602V34.8602ZM80.2402 0H9.01297C4.22758 0 0.343896 3.8738 0.332031 8.66117V79.9279C0.343896 84.7153 4.22758 88.5891 9.01297 88.5891H80.2402C85.0276 88.5891 88.9093 84.7153 88.9211 79.9279V8.66117C88.9093 3.8738 85.0256 0 80.2402 0V0ZM30.8241 51.2531C30.8241 54.9727 28.5283 60.6084 21.2612 60.5965H12.0859V27.8779H21.455C28.463 27.8779 30.8201 33.5057 30.8221 37.2272L30.8241 51.2531ZM50.7329 33.7212H40.1971V41.3185H46.6376V47.1658H40.1971V54.7611H50.7349V60.6084H38.4392C36.2324 60.6657 34.3973 58.9216 34.3419 56.7148V31.9751C34.2885 29.7703 36.0346 27.9392 38.2395 27.8838H50.7349L50.7329 33.7212ZM71.227 56.5191C68.6168 62.5997 63.9402 61.3895 61.8461 56.5191L54.227 27.8858H60.6675L66.5425 50.3732L72.3898 27.8858H78.8323L71.227 56.5191Z" fill="#313C49"/>
</svg>
