<svg width="98" height="65" viewBox="0 0 98 65" fill="none" xmlns="http://www.w3.org/2000/svg">
<path d="M76.5005 30.3516H97.5959V18.0355H76.5005V30.3516ZM76.5005 0.896973V13.2063H97.5959V0.896973H76.5005ZM76.5005 47.4884H97.5959V35.1774H76.5005V47.4884ZM0.0292969 64.632H21.1247V52.3227H0.0292969V64.632ZM25.5169 64.632H46.6106V52.3227H25.5169V64.632ZM51.0129 64.632H72.1083V52.3227H51.0146L51.0129 64.632ZM76.5005 64.632H97.5959V52.3227H76.5005V64.632ZM51.0146 47.4884H72.1083V35.1774H51.0146V47.4884ZM25.5186 47.4884H46.6106V35.1774H25.5169L25.5186 47.4884ZM25.5186 30.3516H46.6106V18.0355H25.5169L25.5186 30.3516Z" fill="#313C49"/>
</svg>
