<svg width="93" height="93" viewBox="0 0 93 93" fill="none" xmlns="http://www.w3.org/2000/svg">
<path d="M0.078125 46.8097C0.078125 38.4704 2.13234 30.7751 6.24057 23.7235C10.3489 16.6719 15.9289 11.0921 22.9804 6.98374C30.0319 2.87541 37.7274 0.821289 46.0665 0.821289C54.4058 0.821289 62.1012 2.87541 69.1527 6.98374C76.2043 11.0921 81.7843 16.6719 85.8925 23.7235C90.0008 30.7751 92.055 38.4704 92.055 46.8097C92.055 55.149 90.0008 62.8443 85.8925 69.8959C81.7843 76.9475 76.2043 82.5273 69.1527 86.6357C62.1012 90.744 54.4058 92.7981 46.0665 92.7981C37.7274 92.7981 30.0319 90.744 22.9804 86.6357C15.9289 82.5273 10.3489 76.9475 6.24057 69.8959C2.13234 62.8443 0.078125 55.149 0.078125 46.8097ZM7.7122 46.8097C7.7122 56.3753 10.9314 64.8065 17.3698 72.1033C20.313 66.3394 24.9732 60.8515 31.3502 55.6395C37.7274 50.4274 43.9511 47.147 50.0215 45.798C49.1018 43.6519 48.2127 41.7203 47.3542 40.0034C36.8076 43.3759 25.4025 45.0621 13.1388 45.0621C10.7474 45.0621 8.96925 45.0315 7.80418 44.9702C7.80418 45.2155 7.78891 45.522 7.75819 45.8899C7.72756 46.2578 7.7122 46.5644 7.7122 46.8097ZM8.9079 37.3361C10.2569 37.4587 12.2498 37.52 14.8864 37.52C25.1265 37.52 34.8454 36.1404 44.043 33.3811C39.383 25.1032 34.2629 18.2049 28.6829 12.6863C23.8389 15.139 19.6845 18.5422 16.2201 22.8957C12.7557 27.2493 10.3183 32.0628 8.9079 37.3361ZM22.6124 77.0701C29.5414 82.4661 37.3595 85.164 46.0665 85.164C50.6041 85.164 55.111 84.3056 59.5871 82.5887C58.3608 72.1033 55.9694 61.9553 52.4129 52.1444C46.7717 53.3707 41.0845 56.4673 35.3512 61.434C29.618 66.4008 25.3718 71.6128 22.6124 77.0701ZM36.6849 9.74304C42.0809 15.323 47.0783 22.2825 51.6771 30.6218C60.0164 27.1267 66.3014 22.6811 70.5324 17.2851C63.4195 11.3986 55.2642 8.45537 46.0665 8.45537C42.9393 8.45537 39.8121 8.88462 36.6849 9.74304ZM54.9883 37.1521C55.9081 39.1143 56.9505 41.5977 58.1155 44.6023C62.6531 44.173 67.5891 43.9584 72.9238 43.9584C76.7255 43.9584 80.4966 44.0504 84.2369 44.2344C83.7464 35.8951 80.7418 28.4757 75.2232 21.976C71.2376 27.9238 64.4926 32.9826 54.9883 37.1521ZM60.4149 51.0406C63.5421 60.1157 65.6576 69.436 66.7613 79.0016C71.6055 75.8744 75.5605 71.858 78.6263 66.9526C81.6923 62.0472 83.5318 56.7432 84.1449 51.0406C79.6688 50.7341 75.5911 50.5808 71.912 50.5808C68.5396 50.5808 64.7072 50.7341 60.4149 51.0406Z" fill="#313C49"/>
</svg>
