<svg width="109" height="108" viewBox="0 0 109 108" fill="none" xmlns="http://www.w3.org/2000/svg">
<path d="M51.7168 4.7066V80.5531C51.7168 86.8237 61.4613 86.8334 61.4613 80.5531V4.7066C61.4613 -1.56399 51.7168 -1.57374 51.7168 4.7066V4.7066ZM106.549 26.5295C96.8047 31.0753 87.0602 35.626 77.3157 40.1718C76.502 40.5518 76.5361 41.8868 77.3157 42.2766C86.7337 46.9881 96.1567 51.6947 105.575 56.4062C106.973 57.1029 108.211 55.0029 106.803 54.3013C97.3845 49.5899 87.9616 44.8833 78.5435 40.1718V42.2766C88.288 37.7308 98.0325 33.1801 107.777 28.6343C109.2 27.9716 107.962 25.8717 106.549 26.5295Z" fill="#313C49"/>
<path d="M0.0612036 53.4976C5.58635 79.6811 26.5712 100.442 52.8375 105.65C57.2421 106.522 61.744 107.014 66.2362 107.024C69.3691 107.029 69.374 102.157 66.2362 102.152C41.836 102.123 19.292 87.7837 9.11386 65.5564C7.16009 61.2932 5.72278 56.7863 4.75807 52.2015C4.11006 49.1369 -0.586807 50.4329 0.0612036 53.4976Z" fill="#313C49"/>
</svg>
