<svg width="85" height="83" viewBox="0 0 85 83" fill="none" xmlns="http://www.w3.org/2000/svg">
<path d="M28.6364 66.6275C28.6364 66.9663 28.2468 67.2373 27.7556 67.2373C27.1966 67.2881 26.807 67.0171 26.807 66.6275C26.807 66.2888 27.1966 66.0177 27.6878 66.0177C28.196 65.9669 28.6364 66.2379 28.6364 66.6275ZM23.3684 65.8653C23.2499 66.2041 23.5886 66.5936 24.0968 66.6953C24.5372 66.8647 25.0454 66.6953 25.147 66.3565C25.2486 66.0177 24.9268 65.6281 24.4186 65.4757C23.9782 65.3571 23.487 65.5265 23.3684 65.8653ZM30.8553 65.5773C30.3641 65.6959 30.0253 66.0177 30.0761 66.4073C30.127 66.7461 30.5674 66.9663 31.0755 66.8477C31.5667 66.7292 31.9055 66.4073 31.8547 66.0686C31.8039 65.7467 31.3465 65.5265 30.8553 65.5773ZM42.001 0.668457C18.5071 0.668457 0.535156 18.5048 0.535156 41.9987C0.535156 60.7837 12.3583 76.8585 29.2462 82.516C31.4143 82.9056 32.1765 81.5674 32.1765 80.4664C32.1765 79.4162 32.1257 73.6232 32.1257 70.0661C32.1257 70.0661 20.2687 72.6069 17.7787 65.0184C17.7787 65.0184 15.8477 60.0892 13.0698 58.8188C13.0698 58.8188 9.1908 56.1594 13.3408 56.2103C13.3408 56.2103 17.5585 56.549 19.8791 60.5804C23.5886 67.1188 29.8051 65.2386 32.2274 64.1206C32.6169 61.4104 33.718 59.5302 34.9375 58.4123C25.4688 57.3621 15.9154 55.9901 15.9154 39.6951C15.9154 35.037 17.2028 32.6994 19.913 29.7182C19.4726 28.6172 18.0328 24.0777 20.3534 18.2169C23.8935 17.1159 32.041 22.7903 32.041 22.7903C35.4288 21.8418 39.0706 21.3505 42.6785 21.3505C46.2864 21.3505 49.9282 21.8418 53.316 22.7903C53.316 22.7903 61.4635 17.0989 65.0036 18.2169C67.3242 24.0946 65.8844 28.6172 65.444 29.7182C68.1542 32.7164 69.8142 35.0539 69.8142 39.6951C69.8142 56.0409 59.8373 57.3452 50.3686 58.4123C51.927 59.7504 53.2482 62.2912 53.2482 66.2718C53.2482 71.9801 53.1974 79.0436 53.1974 80.4325C53.1974 81.5335 53.9766 82.8717 56.1278 82.4821C73.0664 76.8585 84.5508 60.7837 84.5508 41.9987C84.5508 18.5048 65.4948 0.668457 42.001 0.668457ZM16.9995 59.0898C16.7793 59.2592 16.8301 59.6488 17.1181 59.9706C17.3891 60.2417 17.7787 60.3602 17.9989 60.14C18.2191 59.9706 18.1683 59.5811 17.8803 59.2592C17.6093 58.9882 17.2197 58.8696 16.9995 59.0898ZM15.1701 57.7178C15.0516 57.938 15.221 58.209 15.5597 58.3784C15.8307 58.5478 16.1695 58.497 16.2881 58.2598C16.4067 58.0396 16.2373 57.7686 15.8985 57.5992C15.5597 57.4976 15.2887 57.5484 15.1701 57.7178ZM20.6583 63.748C20.3872 63.9682 20.4889 64.4763 20.8785 64.7982C21.2681 65.1877 21.7593 65.2386 21.9795 64.9675C22.1997 64.7473 22.098 64.2392 21.7593 63.9173C21.3866 63.5278 20.8785 63.4769 20.6583 63.748ZM18.7273 61.258C18.4562 61.4274 18.4562 61.8678 18.7273 62.2574C18.9983 62.6469 19.4556 62.8163 19.6758 62.6469C19.9468 62.4267 19.9468 61.9863 19.6758 61.5968C19.4387 61.2072 18.9983 61.0378 18.7273 61.258Z" fill="#313C49"/>
</svg>
