<svg width="76" height="77" viewBox="0 0 76 77" fill="none" xmlns="http://www.w3.org/2000/svg">
<path d="M38.0113 19.2345C27.2383 19.2345 18.5488 27.924 18.5488 38.697C18.5488 49.4699 27.2383 58.1595 38.0113 58.1595C48.7842 58.1595 57.4738 49.4699 57.4738 38.697C57.4738 27.924 48.7842 19.2345 38.0113 19.2345ZM38.0113 51.3501C31.0495 51.3501 25.3581 45.6757 25.3581 38.697C25.3581 31.7182 31.0325 26.0438 38.0113 26.0438C44.99 26.0438 50.6644 31.7182 50.6644 38.697C50.6644 45.6757 44.973 51.3501 38.0113 51.3501V51.3501ZM62.8094 18.4383C62.8094 20.9622 60.7768 22.9779 58.2699 22.9779C55.746 22.9779 53.7303 20.9453 53.7303 18.4383C53.7303 15.9314 55.763 13.8988 58.2699 13.8988C60.7768 13.8988 62.8094 15.9314 62.8094 18.4383ZM75.6997 23.0457C75.4118 16.9647 74.0228 11.5782 69.568 7.14027C65.13 2.70235 59.7435 1.31338 53.6626 1.00848C47.3953 0.652771 28.6103 0.652771 22.343 1.00848C16.279 1.29644 10.8925 2.68541 6.43764 7.12333C1.98277 11.5613 0.610742 16.9477 0.305846 23.0287C-0.0498654 29.296 -0.0498654 48.081 0.305846 54.3483C0.593803 60.4292 1.98277 65.8157 6.43764 70.2536C10.8925 74.6916 16.262 76.0805 22.343 76.3854C28.6103 76.7411 47.3953 76.7411 53.6626 76.3854C59.7435 76.0975 65.13 74.7085 69.568 70.2536C74.0059 65.8157 75.3949 60.4292 75.6997 54.3483C76.0555 48.081 76.0555 29.313 75.6997 23.0457V23.0457ZM67.6031 61.0729C66.2819 64.3929 63.7241 66.9506 60.3872 68.2888C55.3903 70.2706 43.5333 69.8132 38.0113 69.8132C32.4893 69.8132 20.6153 70.2536 15.6353 68.2888C12.3153 66.9676 9.75761 64.4098 8.41946 61.0729C6.43764 56.076 6.89498 44.219 6.89498 38.697C6.89498 33.175 6.45457 21.301 8.41946 16.321C9.74067 13.001 12.2984 10.4433 15.6353 9.10515C20.6322 7.12333 32.4893 7.58068 38.0113 7.58068C43.5333 7.58068 55.4073 7.14027 60.3872 9.10515C63.7072 10.4264 66.2649 12.9841 67.6031 16.321C69.5849 21.3179 69.1276 33.175 69.1276 38.697C69.1276 44.219 69.5849 56.0929 67.6031 61.0729Z" fill="#313C49"/>
</svg>
