<svg width="76" height="76" viewBox="0 0 76 76" fill="none" xmlns="http://www.w3.org/2000/svg">
<path d="M70.4647 0H5.40343C2.42223 0 0 2.4561 0 5.47118V70.4139C0 73.429 2.42223 75.8851 5.40343 75.8851H70.4647C73.446 75.8851 75.8851 73.429 75.8851 70.4139V5.47118C75.8851 2.4561 73.446 0 70.4647 0ZM22.9349 65.0444H11.6877V28.8296H22.9519V65.0444H22.9349ZM17.3113 23.8835C13.7034 23.8835 10.7899 20.9531 10.7899 17.3621C10.7899 13.7711 13.7034 10.8407 17.3113 10.8407C20.9023 10.8407 23.8327 13.7711 23.8327 17.3621C23.8327 20.97 20.9192 23.8835 17.3113 23.8835V23.8835ZM65.0952 65.0444H53.8479V47.4282C53.8479 43.2274 53.7632 37.824 48.0041 37.824C42.1433 37.824 41.2456 42.3974 41.2456 47.1233V65.0444H29.9983V28.8296H40.7882V33.7757H40.9407C42.4482 30.93 46.1239 27.9318 51.5951 27.9318C62.9779 27.9318 65.0952 35.4356 65.0952 45.1923V65.0444V65.0444Z" fill="#313C49"/>
</svg>
