<svg width="107" height="61" viewBox="0 0 107 61" fill="none" xmlns="http://www.w3.org/2000/svg">
<path d="M30.001 0C46.5709 0 60.002 13.525 60.002 30.2071C60.002 46.8896 46.5697 60.4133 30.001 60.4133C13.4331 60.4133 0 46.8896 0 30.2071C0 13.5254 13.4319 0 30.001 0ZM77.9111 1.76931C86.1959 1.76931 92.912 14.5002 92.912 30.2071H92.9133C92.9133 45.9102 86.1971 58.6449 77.9128 58.6449C69.6285 58.6449 62.9119 45.9102 62.9119 30.2071C62.9119 14.5044 69.6268 1.76931 77.9116 1.76931H77.9111ZM101.099 4.7316C104.012 4.7316 106.375 16.1374 106.375 30.2075C106.375 44.2731 104.013 55.6834 101.099 55.6834C98.1847 55.6834 95.824 44.2764 95.824 30.2075C95.824 16.1382 98.1859 4.7316 101.099 4.7316Z" fill="#313C49"/>
</svg>
