<svg width="195" height="62" viewBox="0 0 195 62" fill="none" xmlns="http://www.w3.org/2000/svg">
<path d="M97.123 49.4532L97.1174 53.3086L82.7792 53.3221L82.781 48.914L82.5776 48.9066C79.7201 51.9083 75.504 54.1938 70.7888 54.1938C65.0004 54.1938 58.8572 50.62 58.8572 42.8346V24.0431C58.8572 23.0432 58.4983 21.8275 57.3552 21.6124C57.3552 21.6124 54.1476 21.095 53.8535 21.039V17.0569C54.1102 17.0379 68.718 15.768 69.1444 15.7301V39.2636C69.1444 44.4777 72.2173 46.7631 75.7898 46.7631C79.4343 46.7631 82.3635 44.1924 82.3635 40.1913V24.0431C82.3635 23.0432 82.0064 21.8275 80.8628 21.6124L77.3519 21.1084L77.3528 17.0097C77.3528 17.0097 92.2751 15.7495 92.6529 15.7125V45.6191L92.6691 46.6101C92.6691 48.039 93.2523 48.692 93.8872 48.8257C94.9402 49.0467 97.123 49.4532 97.123 49.4532ZM114.532 54.4971C102.743 54.4971 96.2429 46.1375 96.2429 35.3504C96.2429 24.4186 103.6 15.1289 115.247 15.1289C127.036 15.1289 133.54 23.3457 133.54 34.1355C133.54 45.0664 126.179 54.4971 114.532 54.4971V54.4971ZM114.889 20.8457C109.102 20.8457 107.457 26.4899 107.457 34.1355C107.457 46.0644 111.675 48.7813 114.889 48.7813C120.676 48.7813 122.32 42.996 122.32 35.3504C122.32 23.4178 118.105 20.8457 114.889 20.8457V20.8457Z" fill="#313C49"/>
<path d="M146.717 22.7991C149.177 18.4933 154.784 14.7479 160.48 15.7371L161.719 24.3395C157.865 24.0699 149.741 25.9197 147.345 32.025L147.339 46.5768C147.339 48.0058 147.912 48.7212 148.557 48.7924L154.206 49.4537L154.18 53.3651H130.61V49.6405L135.838 48.7924C136.481 48.6495 137.052 48.0058 137.052 46.5768L137.054 24.1527C137.054 23.152 136.697 21.8659 135.554 21.7239L132.312 21.2236C132.312 21.2236 133.043 21.4169 131.296 21.0691L131.307 16.8784C131.307 16.8784 145.186 15.6807 145.651 15.6427L146.542 22.801L146.717 22.7991V22.7991ZM191.367 48.8627C190.73 48.7355 190.148 48.0761 190.148 46.6471L190.159 28.9793C190.159 19.8186 185.144 16.0169 177.533 15.5031C173.133 15.2062 166.774 16.0155 163.078 17.7677L164.231 25.1488C168.229 23.3813 172.643 21.9699 176.309 22.9295C178.725 23.5617 180.207 25.276 180.207 28.1927L180.217 30.418C180.013 30.418 179.233 30.399 179.018 30.399C168.952 30.418 159.056 33.6939 159.056 43.9103C159.056 49.9818 163.202 54.1966 169.848 54.1966C175.777 54.1966 178.921 51.4815 180.779 49.2664L180.974 49.2747L180.972 53.3757L194.607 53.3614L194.623 49.5069L191.367 48.8627V48.8627ZM180.161 39.5439C180.161 44.1901 175.911 45.4466 172.961 45.3587C169.924 45.2695 168.734 43.3346 168.734 41.3216C168.734 38.2976 171.804 36.408 180.176 36.408L180.161 39.5439ZM40.097 51.5065L40.1109 51.4658C47.7196 46.7475 52.8074 38.1404 52.8074 27.8264C52.8074 7.9573 39.9403 0.899414 26.4895 0.899414C13.7948 0.899414 0 10.8726 0 28.2093C0 48.0789 12.8644 55.3661 26.3216 55.3661C28.4364 55.3661 30.4925 55.1122 32.4653 54.6419C32.4653 54.6419 32.4944 54.6516 32.5134 54.6544C37.8153 64.1272 45.7112 61.8348 47.7482 61.088C47.7482 61.088 47.4749 59.4209 46.9968 56.3183C43.1876 56.2203 41.4904 54.308 40.097 51.5065V51.5065ZM29.9153 48.28C28.7102 48.5764 27.4912 48.6921 26.3133 48.6921C20.0513 48.6921 12.5518 45.9877 12.5518 29.1088C12.5518 12.234 20.4055 7.57439 26.668 7.57439C32.9291 7.57439 40.2108 11.5903 40.2108 28.4669C40.2108 36.1172 38.6547 40.9821 36.3655 44.0209C36.3313 44.0227 36.3027 44.0144 36.3027 44.0144C31.0955 37.2959 24.3387 38.9057 22.7182 39.6355C22.7182 39.6355 22.9249 41.1764 23.3536 43.9774C26.9279 43.9765 28.6977 45.83 29.9338 48.2236C29.9261 48.2419 29.9199 48.2607 29.9153 48.28V48.28Z" fill="#313C49"/>
</svg>
