<svg width="85" height="85" viewBox="0 0 85 85" fill="none" xmlns="http://www.w3.org/2000/svg">
<path d="M32.995 50.3925C30.6575 50.3925 28.7773 48.5123 28.7773 46.2256C28.7773 43.888 30.6575 42.0078 32.995 42.0078C35.2987 42.0078 37.1619 43.888 37.1619 46.2256C37.1619 48.5292 35.2817 50.3925 32.995 50.3925ZM84.2344 42.0078C84.2344 65.2138 65.4325 84.0157 42.2266 84.0157C19.0206 84.0157 0.21875 65.2138 0.21875 42.0078C0.21875 18.8019 19.0206 0 42.2266 0C65.4325 0 84.2344 18.8019 84.2344 42.0078ZM61.8246 35.0291C60.2324 35.0291 58.8264 35.6897 57.7932 36.723C53.9989 34.0975 48.8835 32.4036 43.209 32.2173L46.1563 18.9543L55.5404 21.0717C55.5404 23.3753 57.4205 25.2386 59.7073 25.2386C62.0448 25.2386 63.925 23.3245 63.925 21.0209C63.925 18.7172 62.0448 16.8031 59.7073 16.8031C58.0642 16.8031 56.6583 17.7856 55.9638 19.1407L45.5974 16.837C45.0892 16.7015 44.5641 17.0742 44.4286 17.5823L41.1933 32.2173C35.5697 32.4544 30.505 34.1314 26.7108 36.7569C25.6775 35.6728 24.2208 35.0291 22.6286 35.0291C16.717 35.0291 14.786 42.9733 20.1894 45.6666C20.0031 46.5135 19.9015 47.3943 19.9015 48.2921C19.9015 57.2018 29.9291 64.4177 42.2605 64.4177C54.6426 64.4177 64.6703 57.2018 64.6703 48.2921C64.6703 47.3943 64.5687 46.4627 64.3484 45.6158C69.6502 42.9056 67.7023 35.0291 61.8246 35.0291V35.0291ZM50.1539 54.7118C47.071 57.7946 37.2636 57.7438 34.2993 54.7118C33.9266 54.3392 33.266 54.3392 32.8934 54.7118C32.4699 55.1353 32.4699 55.7959 32.8934 56.1685C36.7554 60.0305 47.6808 60.0305 51.5598 56.1685C51.9832 55.7959 51.9832 55.1353 51.5598 54.7118C51.1871 54.3392 50.5265 54.3392 50.1539 54.7118ZM51.4581 42.0078C49.1545 42.0078 47.2912 43.888 47.2912 46.2256C47.2912 48.5292 49.1714 50.3925 51.4581 50.3925C53.7957 50.3925 55.6759 48.5123 55.6759 46.2256C55.6759 43.888 53.8126 42.0078 51.4581 42.0078V42.0078Z" fill="#313C49"/>
</svg>
