<svg width="102" height="102" viewBox="0 0 102 102" fill="none" xmlns="http://www.w3.org/2000/svg">
<path d="M51.0663 0.87793C23.2488 0.87793 0.673828 23.4529 0.673828 51.2704C0.673828 79.0878 23.2488 101.663 51.0663 101.663C78.8837 101.663 101.459 79.0878 101.459 51.2704C101.459 23.4529 78.8837 0.87793 51.0663 0.87793ZM71.5281 75.0239C70.6746 75.0239 70.1463 74.7598 69.3539 74.2924C56.6745 66.6523 41.9225 66.3272 27.3534 69.3141C26.5609 69.5173 25.5246 69.8424 24.9354 69.8424C22.9644 69.8424 21.7249 68.2778 21.7249 66.632C21.7249 64.5391 22.9644 63.5434 24.4883 63.2183C41.13 59.5404 58.1375 59.8656 72.6456 68.542C73.8851 69.3345 74.6166 70.0456 74.6166 71.8947C74.6166 73.7438 73.174 75.0239 71.5281 75.0239V75.0239ZM76.994 61.6943C75.9374 61.6943 75.2262 61.227 74.4947 60.8409C61.795 53.3227 42.8572 50.2951 26.0123 54.867C25.037 55.1311 24.5087 55.3953 23.5943 55.3953C21.4201 55.3953 19.6523 53.6275 19.6523 51.4533C19.6523 49.2791 20.7089 47.8364 22.8018 47.2471C28.4506 45.6622 34.2214 44.4837 42.6743 44.4837C55.8617 44.4837 68.6021 47.7551 78.6399 53.7291C80.2858 54.7044 80.936 55.9642 80.936 57.732C80.9157 59.9265 79.2089 61.6943 76.994 61.6943V61.6943ZM83.2931 46.2108C82.2365 46.2108 81.5862 45.9467 80.6719 45.4184C66.2044 36.7826 40.3376 34.71 23.5943 39.3835C22.8628 39.5867 21.9484 39.9118 20.973 39.9118C18.2909 39.9118 16.2386 37.8189 16.2386 35.1164C16.2386 32.3529 17.9454 30.7883 19.7742 30.26C26.9267 28.1671 34.9326 27.1714 43.6497 27.1714C58.4829 27.1714 74.0274 30.26 85.386 36.8842C86.9709 37.7985 88.0072 39.0583 88.0072 41.4764C88.0072 44.2398 85.7721 46.2108 83.2931 46.2108V46.2108Z" fill="#313C49"/>
</svg>
