<svg width="39" height="39" viewBox="0 0 39 39" fill="none" xmlns="http://www.w3.org/2000/svg">
<g clip-path="url(#clip0_139_4)">
<path d="M19.1791 26.2489C21.9187 26.2489 23.8334 24.9602 24.9528 23.7524C25.6082 23.0381 26.7276 22.9865 27.4493 23.6493C28.1637 24.3121 28.2079 25.4315 27.5451 26.1458C25.9323 27.9059 23.1338 29.7839 19.1791 29.7839C15.2244 29.7839 12.4259 27.9059 10.8131 26.1458C10.1503 25.4315 10.1282 24.3121 10.9088 23.6493C11.6306 22.9865 12.75 23.0381 13.4054 23.7524C14.5248 24.9602 16.4395 26.2489 19.1791 26.2489ZM15.6736 15.6442C15.6736 16.9477 14.6132 18.0008 13.317 18.0008C12.0135 18.0008 10.9604 16.9477 10.9604 15.6442C10.9604 14.3407 12.0135 13.2876 13.317 13.2876C14.6132 13.2876 15.6736 14.3407 15.6736 15.6442ZM21.0865 17.3085C20.4973 16.7488 20.4679 15.8209 21.0202 15.2244C22.0954 14.0829 23.6198 13.5821 25.0412 13.5821C26.4036 13.5821 27.9943 14.0829 29.0622 15.2244C29.6218 15.8209 29.5924 16.7488 28.9959 17.3085C28.3994 17.8609 27.4714 17.8314 26.9117 17.2423C26.5141 16.8077 25.8292 16.5279 25.0412 16.5279C24.1943 16.5279 23.5757 16.8077 23.1706 17.2423C22.6183 17.8314 21.683 17.8609 21.0865 17.3085ZM38.032 19.1791C38.032 29.5924 29.5924 38.032 19.1791 38.032C8.7658 38.032 0.326172 29.5924 0.326172 19.1791C0.326172 8.7658 8.7658 0.326172 19.1791 0.326172C29.5924 0.326172 38.032 8.7658 38.032 19.1791ZM19.1791 3.86109C10.7174 3.86109 3.86109 10.7174 3.86109 19.1791C3.86109 27.6408 10.7174 34.4971 19.1791 34.4971C27.6408 34.4971 34.4971 27.6408 34.4971 19.1791C34.4971 10.7174 27.6408 3.86109 19.1791 3.86109Z" fill="#3B4B5D" fill-opacity="0.8"/>
</g>
<defs>
<clipPath id="clip0_139_4">
<rect width="37.7058" height="37.7058" fill="white" transform="translate(0.326172 0.326172)"/>
</clipPath>
</defs>
</svg>
