<svg width="38" height="39" viewBox="0 0 38 39" fill="none" xmlns="http://www.w3.org/2000/svg">
<g clip-path="url(#clip0_139_24)">
<path d="M22.7097 24.2684L12.0829 28.3557C10.5879 28.908 9.24757 27.5014 9.7999 26.0727L13.8872 15.4458C14.1228 14.8198 14.6162 14.3264 15.2422 14.0908L25.8691 10.0035C27.2978 9.45118 28.7044 10.7915 28.152 12.2865L24.0648 22.9133C23.8291 23.5393 23.3357 24.0327 22.7097 24.2684ZM18.9097 16.823C17.6725 16.823 16.5531 17.8761 16.5531 19.1796C16.5531 20.4831 17.6725 21.5362 18.9097 21.5362C20.2795 21.5362 21.3326 20.4831 21.3326 19.1796C21.3326 17.8761 20.2795 16.823 18.9097 16.823ZM37.8289 19.1796C37.8289 29.5929 29.3893 38.0325 18.976 38.0325C8.56268 38.0325 0.123047 29.5929 0.123047 19.1796C0.123047 8.76629 8.56268 0.32666 18.976 0.32666C29.3893 0.32666 37.8289 8.76629 37.8289 19.1796ZM18.976 3.86158C10.5142 3.86158 3.65797 10.7179 3.65797 19.1796C3.65797 27.6413 10.5142 34.4976 18.976 34.4976C27.4377 34.4976 34.294 27.6413 34.294 19.1796C34.294 10.7179 27.4377 3.86158 18.976 3.86158Z" fill="#3B4B5E" fill-opacity="0.8"/>
</g>
<defs>
<clipPath id="clip0_139_24">
<rect width="37.7058" height="37.7058" fill="white" transform="translate(0.123047 0.32666)"/>
</clipPath>
</defs>
</svg>
