<svg width="29" height="39" viewBox="0 0 29 39" fill="none" xmlns="http://www.w3.org/2000/svg">
<g clip-path="url(#clip0_139_28)">
<path d="M4.08878 33.6212L1.76163 35.4844C1.60697 35.6096 1.4155 35.6759 1.21666 35.6759C0.737971 35.6759 0.347656 35.2856 0.347656 34.8069V14.4664C0.347656 6.66006 6.68106 0.32666 14.4873 0.32666C22.2936 0.32666 28.627 6.66006 28.627 14.4664V34.8069C28.627 35.2856 28.2367 35.6759 27.758 35.6759C27.5592 35.6759 27.3677 35.6096 27.2131 35.4844L24.8859 33.6212C24.6429 33.4224 24.3336 33.3193 24.0169 33.3193C23.5824 33.3193 23.17 33.5255 22.9122 33.8716L20.1432 37.5612C19.9223 37.8558 19.5688 38.0325 19.2006 38.0325C18.8324 38.0325 18.4789 37.8558 18.2579 37.5612L15.43 33.7906C15.2091 33.496 14.8556 33.3193 14.4873 33.3193C14.1191 33.3193 13.7656 33.496 13.5447 33.7906L10.7168 37.5612C10.4958 37.8558 10.1423 38.0325 9.77412 38.0325C9.4059 38.0325 9.0524 37.8558 8.83147 37.5612L6.06245 33.8716C5.79733 33.5255 5.39229 33.3193 4.95778 33.3193C4.64111 33.3193 4.33917 33.4297 4.09615 33.6212H4.08878ZM12.1307 14.4664C12.1307 13.1628 11.0776 12.1097 9.77412 12.1097C8.47061 12.1097 7.4175 13.1628 7.4175 14.4664C7.4175 15.7699 8.47061 16.823 9.77412 16.823C11.0776 16.823 12.1307 15.7699 12.1307 14.4664ZM19.2006 16.823C20.5041 16.823 21.5572 15.7699 21.5572 14.4664C21.5572 13.1628 20.5041 12.1097 19.2006 12.1097C17.8971 12.1097 16.844 13.1628 16.844 14.4664C16.844 15.7699 17.8971 16.823 19.2006 16.823Z" fill="#3B4B5D" fill-opacity="0.8"/>
</g>
<defs>
<clipPath id="clip0_139_28">
<rect width="28.2794" height="37.7058" fill="white" transform="translate(0.347656 0.32666)"/>
</clipPath>
</defs>
</svg>
