<svg width="39" height="39" viewBox="0 0 39 39" fill="none" xmlns="http://www.w3.org/2000/svg">
<path d="M29.8635 6.49851C28.0666 4.70159 25.1503 4.70159 23.3533 6.49851L9.8028 20.049C6.70238 23.1495 6.70238 28.172 9.8028 31.2724C12.9032 34.3729 17.9258 34.3729 21.0262 31.2724L32.2201 20.0785C33.0228 19.2758 34.3337 19.2758 35.1364 20.0785C35.9391 20.8812 35.9391 22.1921 35.1364 22.9948L23.9425 34.1887C19.2293 38.902 11.5997 38.902 6.88649 34.1887C2.17325 29.4755 2.17325 21.846 6.88649 17.1327L20.437 3.5822C23.8468 0.17247 29.3701 0.17247 32.7798 3.5822C36.1895 6.99193 36.1895 12.5152 32.7798 15.925L19.8184 28.8864C17.7122 30.9926 14.2951 30.9926 12.1889 28.8864C10.0826 26.7801 10.0826 23.363 12.1889 21.2568L22.7936 10.652C23.5964 9.84932 24.9072 9.84932 25.7099 10.652C26.5127 11.4548 26.5127 12.7656 25.7099 13.5684L15.1052 24.1731C14.6118 24.6665 14.6118 25.4766 15.1052 25.97C15.5986 26.4635 16.4087 26.4635 16.9021 25.97L29.8635 13.0087C31.6604 11.2117 31.6604 8.29543 29.8635 6.49851V6.49851Z" fill="#3B4B5D" fill-opacity="0.8"/>
</svg>
