<svg width="37" height="39" viewBox="0 0 37 39" fill="none" xmlns="http://www.w3.org/2000/svg">
<g clip-path="url(#clip0_139_32)">
<path d="M18.713 0.916016C8.63109 0.916016 0.449219 9.09789 0.449219 19.1798C0.449219 29.2617 8.63109 37.4436 18.713 37.4436C28.7949 37.4436 36.9768 29.2617 36.9768 19.1798C36.9768 9.09789 28.7949 0.916016 18.713 0.916016ZM26.129 27.7888C25.8197 27.7888 25.6282 27.6931 25.341 27.5237C20.7456 24.7547 15.399 24.6368 10.1187 25.7194C9.83149 25.793 9.45591 25.9109 9.24234 25.9109C8.52799 25.9109 8.07876 25.3438 8.07876 24.7473C8.07876 23.9888 8.52799 23.6279 9.08032 23.5101C15.1118 22.1771 21.2758 22.2949 26.534 25.4395C26.9832 25.7268 27.2484 25.9845 27.2484 26.6547C27.2484 27.3248 26.7255 27.7888 26.129 27.7888V27.7888ZM28.11 22.9577C27.727 22.9577 27.4693 22.7884 27.2042 22.6484C22.6014 19.9236 15.7378 18.8263 9.63265 20.4833C9.27916 20.579 9.08769 20.6748 8.75629 20.6748C7.9683 20.6748 7.32759 20.0341 7.32759 19.2461C7.32759 18.4581 7.71054 17.9352 8.46908 17.7216C10.5164 17.1472 12.6079 16.7201 15.6715 16.7201C20.451 16.7201 25.0685 17.9057 28.7065 20.0709C29.303 20.4244 29.5387 20.881 29.5387 21.5217C29.5313 22.317 28.9127 22.9577 28.11 22.9577V22.9577ZM30.393 17.346C30.01 17.346 29.7744 17.2503 29.443 17.0588C24.1995 13.929 14.8246 13.1778 8.75629 14.8716C8.49117 14.9452 8.15977 15.0631 7.80628 15.0631C6.83417 15.0631 6.09037 14.3045 6.09037 13.3251C6.09037 12.3235 6.70898 11.7564 7.37178 11.565C9.96405 10.8064 12.8656 10.4456 16.025 10.4456C21.401 10.4456 27.0348 11.565 31.1515 13.9658C31.7259 14.2972 32.1015 14.7538 32.1015 15.6301C32.1015 16.6317 31.2914 17.346 30.393 17.346V17.346Z" fill="#3B4B5E" fill-opacity="0.8"/>
</g>
<defs>
<clipPath id="clip0_139_32">
<rect width="36.5275" height="37.7058" fill="white" transform="translate(0.451172 0.32666)"/>
</clipPath>
</defs>
</svg>
