<svg width="37" height="36" viewBox="0 0 37 36" fill="none" xmlns="http://www.w3.org/2000/svg">
<g clip-path="url(#clip0_139_37)">
<path d="M17.6078 1.69554C18.4884 0.610714 19.7283 0 21.0245 0C23.0604 0 24.8638 1.50268 25.4767 3.72054L26.5898 7.7625C27.104 9.61071 28.365 11.0571 29.9853 11.6437L34.3671 13.2429C35.8606 13.7893 36.875 15.3723 36.875 17.1562C36.875 18.5625 36.248 19.8643 35.2125 20.6196L29.1611 25.0232C28.4143 25.5696 27.9917 26.5339 28.0551 27.5384L28.2312 30.2625C28.4284 33.3563 26.2798 36 23.5535 36C22.5954 36 21.6585 35.6625 20.8695 35.0357L17.474 32.3357C16.4314 31.508 15.1985 31.0661 13.9305 31.0661H12.7963C12.4511 31.0661 12.0989 31.0982 11.7537 31.1625L6.71676 32.1509C5.21624 32.4402 3.70164 31.6929 2.87037 30.2304C2.03909 28.7759 2.03909 26.9036 2.87037 25.4571L4.78652 22.0982C5.13171 21.4955 5.31487 20.7884 5.31487 20.0652C5.31487 19.2696 5.08944 18.4982 4.68085 17.8634L1.60232 13.0661C0.348372 11.1134 0.756963 8.37321 2.51109 7.00714C3.19442 6.47679 4.00456 6.21964 4.82878 6.27589L10.5068 6.64554C12.3455 6.76607 14.1348 5.94643 15.3958 4.40357L17.6149 1.6875L17.6078 1.69554ZM12.0778 18C13.3247 18 14.332 16.8509 14.332 15.4286C14.332 14.0062 13.3247 12.8571 12.0778 12.8571C10.8308 12.8571 9.82346 14.0062 9.82346 15.4286C9.82346 16.8509 10.8308 18 12.0778 18ZM23.3492 14.1429C23.3492 13.4357 22.842 12.8571 22.2221 12.8571C21.6021 12.8571 21.0949 13.4357 21.0949 14.1429C21.0949 14.85 21.6021 15.4286 22.2221 15.4286C22.842 15.4286 23.3492 14.85 23.3492 14.1429ZM21.0949 25.7143C22.3418 25.7143 23.3492 24.5652 23.3492 23.1429C23.3492 21.7205 22.3418 20.5714 21.0949 20.5714C19.848 20.5714 18.8406 21.7205 18.8406 23.1429C18.8406 24.5652 19.848 25.7143 21.0949 25.7143Z" fill="#3B4B5E" fill-opacity="0.8"/>
</g>
<defs>
<clipPath id="clip0_139_37">
<rect width="36" height="36" fill="white" transform="translate(0.875)"/>
</clipPath>
</defs>
</svg>
