<svg width="34" height="39" viewBox="0 0 34 39" fill="none" xmlns="http://www.w3.org/2000/svg">
<g clip-path="url(#clip0_139_12)">
<path d="M21.6881 0.32666H12.2616H9.90498C8.60147 0.32666 7.54836 1.37977 7.54836 2.68328C7.54836 3.98678 8.60147 5.03989 9.90498 5.03989V14.8198C9.90498 15.6888 9.66195 16.5505 9.20536 17.2869L1.23705 30.2409C0.743635 31.051 0.478516 31.9716 0.478516 32.9216C0.478516 35.7422 2.76885 38.0325 5.58943 38.0325H28.3602C31.1808 38.0325 33.4711 35.7422 33.4711 32.9216C33.4711 31.9789 33.206 31.051 32.7126 30.2409L24.7443 17.2943C24.2877 16.5505 24.0447 15.6962 24.0447 14.8272V5.03989C25.3482 5.03989 26.4013 3.98678 26.4013 2.68328C26.4013 1.37977 25.3482 0.32666 24.0447 0.32666H21.6881ZM14.6182 14.8198V5.03989H19.3314V14.8198C19.3314 16.5652 19.8175 18.2738 20.7307 19.7614L23.2714 23.8928H10.6782L13.219 19.7614C14.1322 18.2738 14.6182 16.5652 14.6182 14.8198V14.8198Z" fill="#3B4B5E" fill-opacity="0.8"/>
</g>
<defs>
<clipPath id="clip0_139_12">
<rect width="32.9926" height="37.7058" fill="white" transform="translate(0.478516 0.32666)"/>
</clipPath>
</defs>
</svg>
