<svg width="39" height="39" viewBox="0 0 39 39" fill="none" xmlns="http://www.w3.org/2000/svg">
<g clip-path="url(#clip0_139_20)">
<path d="M27.8058 30.7049C25.5008 32.3545 22.6728 33.3193 19.6166 33.3193C16.5604 33.3193 13.7324 32.3545 11.4274 30.7049L15.6987 26.4335C16.8623 27.0669 18.2026 27.4277 19.624 27.4277C21.0453 27.4277 22.3783 27.0669 23.5492 26.4335L27.8206 30.7049H27.8058ZM34.5075 30.7417C36.9893 27.5529 38.4695 23.5393 38.4695 19.1796C38.4695 14.8198 36.9893 10.8136 34.5075 7.61744L35.4206 6.70425C36.3412 5.7837 36.3412 4.28872 35.4206 3.36817C34.5001 2.44761 33.0051 2.44761 32.0846 3.36817L31.1787 4.28872C27.9826 1.80691 23.9763 0.32666 19.6166 0.32666C15.2569 0.32666 11.2506 1.80691 8.05445 4.28872L7.14126 3.37553C6.22071 2.45498 4.72573 2.45498 3.80518 3.37553C2.88463 4.29608 2.88463 5.79106 3.80518 6.71161L4.72573 7.61744C2.24392 10.8136 0.763672 14.8198 0.763672 19.1796C0.763672 23.5393 2.24392 27.5456 4.72573 30.7417L3.81254 31.6549C2.89199 32.5755 2.89199 34.0704 3.81254 34.991C4.7331 35.9116 6.22807 35.9116 7.14863 34.991L8.05445 34.0704C11.2432 36.5523 15.2569 38.0325 19.6166 38.0325C23.9763 38.0325 27.9826 36.5523 31.1787 34.0704L32.0919 34.9836C33.0125 35.9042 34.5075 35.9042 35.428 34.9836C36.3486 34.0631 36.3486 32.5681 35.428 31.6475L34.5075 30.7417ZM31.1419 27.3762L26.8706 23.1048C27.5039 21.9412 27.8647 20.6009 27.8647 19.1796C27.8647 17.7582 27.5039 16.4253 26.8706 15.2543L31.1419 10.983C32.7915 13.2954 33.7563 16.1233 33.7563 19.1796C33.7563 22.2358 32.7915 25.0638 31.1419 27.3688V27.3762ZM27.8058 7.65426L23.5345 11.9256C22.3709 11.2923 21.0306 10.9314 19.6092 10.9314C18.1879 10.9314 16.8549 11.2923 15.684 11.9256L11.4126 7.65426C13.7324 6.00463 16.5604 5.03989 19.6166 5.03989C22.6728 5.03989 25.5008 6.00463 27.8058 7.65426ZM12.3626 23.1048L8.09127 27.3762C6.44164 25.0638 5.4769 22.2358 5.4769 19.1796C5.4769 16.1233 6.44164 13.2954 8.09127 10.9903L12.3626 15.2617C11.7293 16.4253 11.3684 17.7656 11.3684 19.1869C11.3684 20.6083 11.7293 21.9412 12.3626 23.1122V23.1048ZM23.1515 19.1796C23.1515 21.1312 21.5682 22.7145 19.6166 22.7145C17.665 22.7145 16.0817 21.1312 16.0817 19.1796C16.0817 17.228 17.665 15.6447 19.6166 15.6447C21.5682 15.6447 23.1515 17.228 23.1515 19.1796Z" fill="#3B4B5E" fill-opacity="0.8"/>
</g>
<defs>
<clipPath id="clip0_139_20">
<rect width="37.7058" height="37.7058" fill="white" transform="translate(0.763672 0.32666)"/>
</clipPath>
</defs>
</svg>
