<svg width="39" height="39" viewBox="0 0 39 39" fill="none" xmlns="http://www.w3.org/2000/svg">
<g clip-path="url(#clip0_139_16)">
<path d="M17.6739 0.746381C18.6975 0.37816 19.8169 0.37816 20.8479 0.746381L34.9876 5.79837C36.8582 6.46854 38.1101 8.24336 38.1101 10.2391V28.1199C38.1101 30.1083 36.8582 31.8905 34.9803 32.5607L20.8406 37.6127C19.8169 37.9809 18.6975 37.9809 17.6665 37.6127L3.52681 32.5607C1.65625 31.8905 0.404297 30.1157 0.404297 28.1199V10.2391C0.404297 8.25073 1.65625 6.46854 3.53418 5.79837L17.6739 0.746381V0.746381ZM19.2572 5.18713L6.46522 9.75307L19.2572 14.319L32.0492 9.75307L19.2572 5.18713ZM21.6138 32.3324L33.3969 28.1273V14.2822L21.6138 18.4873V32.3324Z" fill="#3B4B5E" fill-opacity="0.8"/>
</g>
<defs>
<clipPath id="clip0_139_16">
<rect width="37.7058" height="37.7058" fill="white" transform="translate(0.404297 0.32666)"/>
</clipPath>
</defs>
</svg>
