<svg width="26" height="25" viewBox="0 0 26 25" fill="none" xmlns="http://www.w3.org/2000/svg">
<g clip-path="url(#clip0_95_109)">
<path d="M17.9932 0.439411C18.2299 0.538808 18.4003 0.751804 18.4476 1.00267L19.3895 6.10982L24.4967 7.047C24.7476 7.09433 24.9606 7.26473 25.06 7.50139C25.1594 7.73805 25.131 8.00785 24.9842 8.22084L22.0354 12.4997L24.9842 16.7738C25.131 16.9868 25.1594 17.2566 25.06 17.4932C24.9606 17.7299 24.7476 17.9003 24.4967 17.9476L19.3895 18.8895L18.4476 23.9967C18.4003 24.2476 18.2299 24.4606 17.9932 24.56C17.7566 24.6594 17.4868 24.631 17.2738 24.4842L12.9997 21.5354L8.72558 24.4842C8.51258 24.631 8.24279 24.6594 8.00613 24.56C7.76946 24.4606 7.59907 24.2476 7.55174 23.9967L6.60982 18.8895L1.50267 17.9476C1.2518 17.9003 1.03881 17.7299 0.939411 17.4932C0.840013 17.2566 0.868412 16.9868 1.01514 16.7738L3.96395 12.4997L1.01514 8.22558C0.868412 8.01258 0.840013 7.74279 0.939411 7.50613C1.03881 7.26946 1.2518 7.09907 1.50267 7.05174L6.60982 6.10982L7.55174 1.00267C7.59907 0.751804 7.76946 0.538808 8.00613 0.439411C8.24279 0.340013 8.51258 0.368412 8.72558 0.515142L12.9997 3.46395L17.2738 0.515142C17.4868 0.368412 17.7566 0.340013 17.9932 0.439411ZM17.5436 12.4997C17.5436 15.0083 15.5083 17.0436 12.9997 17.0436C10.4911 17.0436 8.45578 15.0083 8.45578 12.4997C8.45578 9.99107 10.4911 7.95578 12.9997 7.95578C15.5083 7.95578 17.5436 9.99107 17.5436 12.4997ZM19.0582 12.4997C19.0582 9.15329 16.3461 6.44115 12.9997 6.44115C9.65329 6.44115 6.94115 9.15329 6.94115 12.4997C6.94115 15.8461 9.65329 18.5582 12.9997 18.5582C16.3461 18.5582 19.0582 15.8461 19.0582 12.4997Z" fill="#D7DDE7"/>
</g>
<defs>
<clipPath id="clip0_95_109">
<rect width="24.2341" height="24.2341" fill="white" transform="translate(0.882812 0.382812)"/>
</clipPath>
</defs>
</svg>
