<svg width="24" height="26" viewBox="0 0 24 26" fill="none" xmlns="http://www.w3.org/2000/svg">
<path d="M22.4046 19.7999C22.3681 19.7999 22.3306 19.8033 22.2922 19.8106C21.6754 19.9282 21.0647 19.9846 20.4638 19.9846C15.2611 19.9846 10.9101 15.7515 10.9101 10.3541C10.9101 6.88652 12.7642 3.69774 15.779 1.98016C16.2437 1.7161 16.1269 1.01107 15.5991 0.913393C14.9845 0.799363 13.9787 0.707832 13.3547 0.707832C6.52933 0.65958 1.02539 6.20742 1.02539 13.0009C1.02539 19.7835 6.51836 25.2929 13.3063 25.2929C17.0949 25.2929 20.5554 23.5671 22.8437 20.7421C23.1565 20.3048 22.8162 19.7999 22.4046 19.7999ZM13.3063 22.6589C7.989 22.6589 3.65938 18.3238 3.65938 13.0009C3.65938 8.81288 6.33563 5.24163 10.0633 3.90268C8.88346 5.81233 8.22497 8.04024 8.22497 10.356C8.22497 15.8127 11.799 20.4474 16.725 22.0333C15.6495 22.4449 14.4916 22.6589 13.3063 22.6589Z" fill="#313C49"/>
</svg>
